<svg xmlns="http://www.w3.org/2000/svg" viewBox="0 0 512 512" width="512" height="512">
  <defs>
    <linearGradient id="sea" x1="0" y1="0" x2="0" y2="1">
      <stop offset="0" stop-color="#0e87ab"/><stop offset="1" stop-color="#075063"/>
    </linearGradient>
  </defs>
  <rect width="512" height="512" rx="96" fill="url(#sea)"/>
  <!-- islands -->
  <g fill="#2e9e5b" opacity="0.9">
    <path d="M70 150 q40-35 90-18 q40 14 30 50 q-12 40-70 32 q-66-9-50-64z"/>
    <path d="M360 110 q55-22 92 16 q26 30-8 60 q-44 36-92 6 q-44-30 8-82z"/>
    <path d="M330 360 q60-26 96 20 q22 34-22 64 q-54 32-96-6 q-34-40 22-78z"/>
  </g>
  <!-- dashed route loop -->
  <path d="M150 168 C 300 120 360 150 408 168 C 470 230 430 320 372 392 C 300 440 180 430 132 360 C 96 300 100 220 150 168 Z"
        fill="none" stroke="#ffd27a" stroke-width="14" stroke-linecap="round" stroke-dasharray="2 26"/>
  <!-- bike -->
  <g transform="translate(150,250)" stroke="#fff" stroke-width="16" fill="none" stroke-linecap="round" stroke-linejoin="round">
    <circle cx="20" cy="80" r="46"/>
    <circle cx="172" cy="80" r="46"/>
    <path d="M20 80 L80 80 L120 18 L150 18"/>
    <path d="M80 80 L120 80 L172 80"/>
    <path d="M120 80 L96 18 L72 18"/>
  </g>
  <circle cx="266" cy="330" r="20" fill="#e8852b" stroke="#fff" stroke-width="8"/>
</svg>
